<svg xmlns="http://www.w3.org/2000/svg" xmlns:xlink="http://www.w3.org/1999/xlink" viewBox="0 0 365.5 304.92"><defs><style>.cls-1{fill:#26aae2;}.cls-2,.cls-3,.cls-6{opacity:0.6;}.cls-2{fill:url(#Безымянный_градиент_6);}.cls-3{fill:url(#Безымянный_градиент_6-2);}.cls-15,.cls-4,.cls-5,.cls-9{opacity:0.6;isolation:isolate;}.cls-4{fill:url(#Безымянный_градиент_6-3);}.cls-5{fill:url(#Безымянный_градиент_6-4);}.cls-6{fill:url(#Безымянный_градиент_6-5);}.cls-7{fill:#99e1ff;}.cls-8{fill:url(#Безымянный_градиент_18);}.cls-9{fill:url(#Безымянный_градиент_17);}.cls-10{fill:url(#Безымянный_градиент_18-2);}.cls-11{fill:url(#Безымянный_градиент_18-3);}.cls-12{fill:url(#Безымянный_градиент_18-4);}.cls-13{fill:url(#Безымянный_градиент_18-5);}.cls-14{fill:url(#Безымянный_градиент_18-6);}.cls-15{fill:url(#Безымянный_градиент_17-2);}.cls-16{fill:url(#Безымянный_градиент_19);}.cls-17{fill:url(#Безымянный_градиент_19-2);}.cls-18{fill:url(#Безымянный_градиент_19-3);}.cls-19{fill:#caf3ff;}</style><linearGradient id="Безымянный_градиент_6" x1="245.46" y1="116.77" x2="245.46" y2="132.88" gradientUnits="userSpaceOnUse"><stop offset="0" stop-color="#99e1ff"/><stop offset="0.85" stop-color="#99e1ff" stop-opacity="0"/></linearGradient><linearGradient id="Безымянный_градиент_6-2" x1="139.27" y1="111.34" x2="139.27" y2="127.45" gradientTransform="matrix(-1, 0, 0, 1, 259.29, 0)" xlink:href="#Безымянный_градиент_6"/><linearGradient id="Безымянный_градиент_6-3" x1="105.23" y1="196.12" x2="105.23" y2="239.26" xlink:href="#Безымянный_градиент_6"/><linearGradient id="Безымянный_градиент_6-4" x1="256.6" y1="194.6" x2="256.6" y2="234.41" xlink:href="#Безымянный_градиент_6"/><linearGradient id="Безымянный_градиент_6-5" x1="181.8" y1="191.51" x2="181.8" y2="219.35" xlink:href="#Безымянный_градиент_6"/><linearGradient id="Безымянный_градиент_18" x1="200.8" y1="271.24" x2="229.58" y2="271.24" gradientUnits="userSpaceOnUse"><stop offset="0" stop-color="#1a7dc6"/><stop offset="1" stop-color="#0c57aa"/></linearGradient><linearGradient id="Безымянный_градиент_17" x1="236.2" y1="287.46" x2="243.83" y2="296.02" gradientTransform="translate(255.24 -84.88) rotate(41.72)" gradientUnits="userSpaceOnUse"><stop offset="0" stop-color="#e9faff"/><stop offset="1" stop-color="#fff" stop-opacity="0"/></linearGradient><linearGradient id="Безымянный_градиент_18-2" x1="161.07" y1="234.75" x2="161.07" y2="217.69" xlink:href="#Безымянный_градиент_18"/><linearGradient id="Безымянный_градиент_18-3" x1="203.99" y1="234.41" x2="203.99" y2="217.34" xlink:href="#Безымянный_градиент_18"/><linearGradient id="Безымянный_градиент_18-4" x1="146.92" y1="181.13" x2="146.92" y2="160.59" xlink:href="#Безымянный_градиент_18"/><linearGradient id="Безымянный_градиент_18-5" x1="217.24" y1="179.57" x2="217.24" y2="159.03" xlink:href="#Безымянный_градиент_18"/><linearGradient id="Безымянный_градиент_18-6" x1="182.09" y1="86.49" x2="182.09" y2="146.84" xlink:href="#Безымянный_градиент_18"/><linearGradient id="Безымянный_градиент_17-2" x1="165.52" y1="83.56" x2="198.66" y2="83.56" gradientTransform="matrix(1, 0, 0, 1, 0, 0)" xlink:href="#Безымянный_градиент_17"/><linearGradient id="Безымянный_градиент_19" x1="160.35" y1="69.32" x2="160.35" gradientUnits="userSpaceOnUse"><stop offset="0" stop-color="#99e1ff"/><stop offset="1" stop-color="#99e1ff" stop-opacity="0"/></linearGradient><linearGradient id="Безымянный_градиент_19-2" x1="182.09" y1="69.32" x2="182.09" xlink:href="#Безымянный_градиент_19"/><linearGradient id="Безымянный_градиент_19-3" x1="203.83" y1="69.32" x2="203.83" xlink:href="#Безымянный_градиент_19"/></defs><title>Ресурс 33</title><g id="Слой_2" data-name="Слой 2"><g id="Слой_1-2" data-name="Слой 1"><path class="cls-1" d="M275.16,225.65c-2.82-37-23.9-33.61-23.9-33.61-1.8-21.18-11.37-46.74-11.37-46.74,16.71-.88,22.1-9.39,21.37-17.17-.66-7.06-6.6-14.89-18-13.82-9.62.91-17.65,6.76-17.65,6.76-35.67-24.21-85.43-4.3-85.43-4.3-12.18-10-24.06-8.53-29.33-5.73-6.37,3.39-10.6,12.23-7.88,20.17,3.81,11.1,18.39,11.23,18.39,11.23-10,18.15-10,49.6-10,49.6-26.73-2.25-22.1,38.67-22.1,38.67,2.35,29,25.62,23.84,25.62,23.84,72.77,52.43,143.69-1.41,143.69-1.41C277,253,275.19,225.65,275.16,225.65Z"/><path class="cls-2" d="M234.66,125.44c1.27-3,5.44-7.76,10.63-8.58s11.31,4.12,11.31,8.58-4.46,7.6-12.55,7.43S233.32,128.63,234.66,125.44Z"/><path class="cls-3" d="M130.82,120c-1.28-3-5.44-7.77-10.64-8.59s-11.3,4.13-11.3,8.59,4.46,7.59,12.55,7.43S132.16,123.21,130.82,120Z"/><path class="cls-4" d="M117.66,228.74c2.26-11.84.22-29.07-8.59-32-13.6-4.47-18.58,15.14-16.75,29S114.34,246.22,117.66,228.74Z"/><path class="cls-5" d="M270.43,224.69c2.25-10.86-3.81-26.85-12.61-29.51-13.6-4.1-16.9,14.28-15.07,27S267.11,240.72,270.43,224.69Z"/><path class="cls-6" d="M147.62,197.5c13.85-7.51,48.15-7.76,63-1.84,15,6,23.82,19.75,11.15,22.49-9.9,2.15-66,1.12-76.25-.84C134.31,215.16,130.14,207,147.62,197.5Z"/><path class="cls-7" d="M239,284a10.26,10.26,0,0,0-2.56.33l-28.61-27.72a5.5,5.5,0,0,0-7.66,7.9l28.61,27.72a10.32,10.32,0,0,0-.25,2.24A10.47,10.47,0,1,0,239,284Z"/><path class="cls-8" d="M226.14,285.28a3.44,3.44,0,0,1-2.4-1L201.85,263.1a3.44,3.44,0,1,1,4.79-4.94l21.89,21.21a3.44,3.44,0,0,1-2.39,5.91Z"/><path class="cls-9" d="M245.07,297.5a6.4,6.4,0,0,0,.07-9.61c-3.3-2.95-8.94-3.09-11.3.64-1.81,2.86.27,5.69,2.46,7.51C239.57,298.76,242.6,299.54,245.07,297.5Z"/><ellipse class="cls-10" cx="161.07" cy="226.22" rx="3.81" ry="8.53"/><path class="cls-11" d="M204,234.41c-2.11,0-3.82-3.81-3.82-8.53s1.71-8.54,3.82-8.54,3.82,3.83,3.82,8.54S206.09,234.41,204,234.41Z"/><path class="cls-12" d="M156.29,170.75h-.09a20.11,20.11,0,0,0-8.29,2.71,16.85,16.85,0,0,0-6,5.15,5,5,0,0,1-4.36,2.52,5.09,5.09,0,0,1-4.41-7.64,26.11,26.11,0,0,1,9.88-8.94c7.23-4,12.75-4,13.36-4a5.08,5.08,0,0,1-.1,10.16"/><path class="cls-13" d="M207.86,169.18a5.08,5.08,0,0,1-.09-10.15c.61,0,6.13,0,13.36,3.95a26.11,26.11,0,0,1,9.88,8.94,5.11,5.11,0,0,1-1.86,7,5,5,0,0,1-6.91-1.84,17,17,0,0,0-6-5.15,20.11,20.11,0,0,0-8.29-2.71h-.1"/><path class="cls-14" d="M182.83,86.49c-42.57,0-70.36,30.16-65.7,42.4,4.75,12.46,27.49,18,65,18s60.18-5.49,64.93-18C251.68,116.65,225.41,86.49,182.83,86.49Z"/><path class="cls-7" d="M182.09,80.14c-9.15,0-16.57,1.53-16.57,3.42v6.78c0,1.89,7.42,3.42,16.57,3.42s16.57-1.53,16.57-3.42V83.56C198.66,81.67,191.24,80.14,182.09,80.14Z"/><ellipse class="cls-15" cx="182.09" cy="83.56" rx="16.57" ry="3.42"/><path class="cls-16" d="M161.07,69.32a2.51,2.51,0,0,1-1.64-.61,26.61,26.61,0,0,1-8-19.21c0-8.21,4-13.39,7.45-18,2.92-3.82,5.45-7.13,5.45-11.7,0-10.49-4.73-15.55-4.78-15.6A2.5,2.5,0,0,1,163.13.77c.26.27,6.17,6.58,6.17,19.06,0,6.26-3.29,10.57-6.47,14.74S156.4,43,156.4,49.5A21.55,21.55,0,0,0,162.73,65a2.5,2.5,0,0,1-1.66,4.37Z"/><path class="cls-17" d="M182.81,69.32a2.51,2.51,0,0,1-1.64-.61,26.66,26.66,0,0,1-8-19.21c0-8.21,4-13.39,7.45-18,2.93-3.82,5.45-7.13,5.45-11.7,0-10.35-4.59-15.4-4.79-15.61A2.5,2.5,0,0,1,184.87.77C185.13,1,191,7.35,191,19.83c0,6.26-3.29,10.57-6.47,14.74S178.14,43,178.14,49.5A21.55,21.55,0,0,0,184.47,65a2.5,2.5,0,0,1-1.66,4.37Z"/><path class="cls-18" d="M204.55,69.32a2.51,2.51,0,0,1-1.64-.61,26.66,26.66,0,0,1-8-19.21c0-8.21,4-13.39,7.45-18,2.93-3.82,5.45-7.13,5.45-11.7,0-10.35-4.59-15.4-4.79-15.61A2.5,2.5,0,0,1,206.61.77c.26.27,6.17,6.58,6.17,19.06,0,6.26-3.29,10.57-6.47,14.74S199.88,43,199.88,49.5A21.55,21.55,0,0,0,206.21,65a2.5,2.5,0,0,1-1.66,4.37Z"/><path class="cls-7" d="M298.69,185.45a9.33,9.33,0,1,1,9.33-9.33A9.34,9.34,0,0,1,298.69,185.45Zm0-13.65a4.33,4.33,0,1,0,4.33,4.32A4.33,4.33,0,0,0,298.69,171.8Z"/><circle class="cls-7" cx="82.95" cy="146.84" r="3.61"/><path class="cls-19" d="M305.61,99.11a2.49,2.49,0,0,1-2.5-2.5V89.38a2.5,2.5,0,0,1,5,0v7.23A2.49,2.49,0,0,1,305.61,99.11Z"/><path class="cls-19" d="M305.61,121.56a2.5,2.5,0,0,1-2.5-2.5v-7.23a2.5,2.5,0,1,1,5,0v7.23A2.5,2.5,0,0,1,305.61,121.56Z"/><path class="cls-19" d="M318.47,114.12a2.43,2.43,0,0,1-1.24-.33L311,110.18a2.5,2.5,0,1,1,2.49-4.33l6.27,3.61a2.5,2.5,0,0,1-1.25,4.66Z"/><path class="cls-19" d="M299,102.93a2.5,2.5,0,0,1-1.25-.34L291.5,99a2.5,2.5,0,1,1,2.5-4.33l6.27,3.61a2.5,2.5,0,0,1-1.25,4.67Z"/><path class="cls-19" d="M312.13,103.06a2.5,2.5,0,0,1-1.23-4.68l6.3-3.55a2.5,2.5,0,0,1,2.46,4.36l-6.31,3.55A2.47,2.47,0,0,1,312.13,103.06Z"/><path class="cls-19" d="M292.56,114.07a2.5,2.5,0,0,1-1.22-4.68l6.3-3.55a2.5,2.5,0,1,1,2.45,4.36l-6.3,3.55A2.48,2.48,0,0,1,292.56,114.07Z"/><path class="cls-19" d="M47.25,192.27A9.33,9.33,0,1,1,56.57,183,9.34,9.34,0,0,1,47.25,192.27Zm0-13.65A4.33,4.33,0,1,0,51.57,183,4.33,4.33,0,0,0,47.25,178.62Z"/><path class="cls-7" d="M10.64,131.12a2.5,2.5,0,0,1-2.5-2.5v-2.23a2.5,2.5,0,0,1,5,0v2.23A2.5,2.5,0,0,1,10.64,131.12Z"/><path class="cls-7" d="M10.64,147.39a2.5,2.5,0,0,1-2.5-2.5v-2.4a2.5,2.5,0,0,1,5,0v2.4A2.5,2.5,0,0,1,10.64,147.39Z"/><path class="cls-7" d="M18.65,142.75a2.43,2.43,0,0,1-1.24-.33l-1.82-1A2.5,2.5,0,1,1,18.08,137l1.82,1.05a2.5,2.5,0,0,1-1.25,4.66Z"/><path class="cls-7" d="M4.81,134.79a2.53,2.53,0,0,1-1.24-.33l-2.2-1.27a2.5,2.5,0,1,1,2.5-4.33l2.19,1.26a2.5,2.5,0,0,1-1.25,4.67Z"/><path class="cls-7" d="M16.59,134.79a2.5,2.5,0,0,1-1.22-4.68l2-1.14a2.5,2.5,0,0,1,2.45,4.35l-2,1.15A2.48,2.48,0,0,1,16.59,134.79Z"/><path class="cls-7" d="M2.5,142.72A2.5,2.5,0,0,1,1.27,138l2.32-1.3A2.5,2.5,0,0,1,6,141.1l-2.31,1.3A2.48,2.48,0,0,1,2.5,142.72Z"/><circle class="cls-7" cx="361.89" cy="140.37" r="3.61"/></g></g></svg>